<svg width="66" height="64" viewBox="0 0 66 64" fill="none" xmlns="http://www.w3.org/2000/svg">
<circle cx="33.002" cy="32.0303" r="31.0303" fill="#FAFAFA"/>
<path d="M34.9414 20.4666V10.7696C46.7235 10.7696 56.2747 20.3209 56.2747 32.1029C56.2747 37.5005 55.2686 40.7059 51.9634 44.4633L45.2238 38.0592C45.2238 38.0592 46.5778 36.4131 46.5778 32.1029C46.5778 25.6764 41.368 20.4666 34.9414 20.4666Z" fill="#42C000"/>
<path d="M32.2374 31.3279C32.562 31.0033 33.0883 31.0033 33.4129 31.3279L49.3741 47.2891C49.6987 47.6137 49.6987 48.14 49.3741 48.4646C49.0495 48.7892 48.5233 48.7892 48.1987 48.4646L32.2374 32.5033C31.9128 32.1787 31.9128 31.6525 32.2374 31.3279Z" fill="#FF2D46" stroke="#FF2D46"/>
<path fill-rule="evenodd" clip-rule="evenodd" d="M25.2445 6.81818C25.2445 7.88928 24.3762 8.75757 23.3051 8.75757C22.234 8.75757 21.3657 7.88928 21.3657 6.81818C21.3657 5.74708 22.234 4.87878 23.3051 4.87878C24.3762 4.87878 25.2445 5.74708 25.2445 6.81818ZM15.5475 12.6364C16.6186 12.6364 17.4869 11.7681 17.4869 10.697C17.4869 9.62587 16.6186 8.75757 15.5475 8.75757C14.4764 8.75757 13.6081 9.62587 13.6081 10.697C13.6081 11.7681 14.4764 12.6364 15.5475 12.6364ZM15.5475 55.303C16.6186 55.303 17.4869 54.4347 17.4869 53.3636C17.4869 52.2925 16.6186 51.4242 15.5475 51.4242C14.4764 51.4242 13.6081 52.2925 13.6081 53.3636C13.6081 54.4347 14.4764 55.303 15.5475 55.303ZM52.396 10.697C52.396 11.7681 51.5277 12.6364 50.4566 12.6364C49.3855 12.6364 48.5172 11.7681 48.5172 10.697C48.5172 9.62587 49.3855 8.75757 50.4566 8.75757C51.5277 8.75757 52.396 9.62587 52.396 10.697ZM50.4566 55.303C51.5277 55.303 52.396 54.4347 52.396 53.3636C52.396 52.2925 51.5277 51.4242 50.4566 51.4242C49.3855 51.4242 48.5172 52.2925 48.5172 53.3636C48.5172 54.4347 49.3855 55.303 50.4566 55.303ZM23.3051 59.1818C24.3762 59.1818 25.2445 58.3135 25.2445 57.2424C25.2445 56.1713 24.3762 55.303 23.3051 55.303C22.234 55.303 21.3657 56.1713 21.3657 57.2424C21.3657 58.3135 22.234 59.1818 23.3051 59.1818ZM44.6384 6.81818C44.6384 7.88928 43.7701 8.75757 42.699 8.75757C41.6279 8.75757 40.7596 7.88928 40.7596 6.81818C40.7596 5.74708 41.6279 4.87878 42.699 4.87878C43.7701 4.87878 44.6384 5.74708 44.6384 6.81818ZM42.699 59.1818C43.7701 59.1818 44.6384 58.3135 44.6384 57.2424C44.6384 56.1713 43.7701 55.303 42.699 55.303C41.6279 55.303 40.7596 56.1713 40.7596 57.2424C40.7596 58.3135 41.6279 59.1818 42.699 59.1818ZM11.6687 16.5151C11.6687 17.5862 10.8004 18.4545 9.72931 18.4545C8.65822 18.4545 7.78992 17.5862 7.78992 16.5151C7.78992 15.4441 8.65822 14.5758 9.72931 14.5758C10.8004 14.5758 11.6687 15.4441 11.6687 16.5151ZM9.72931 49.4848C10.8004 49.4848 11.6687 48.6165 11.6687 47.5454C11.6687 46.4744 10.8004 45.6061 9.72931 45.6061C8.65822 45.6061 7.78992 46.4744 7.78992 47.5454C7.78992 48.6165 8.65822 49.4848 9.72931 49.4848ZM58.2142 16.5151C58.2142 17.5862 57.3459 18.4545 56.2748 18.4545C55.2037 18.4545 54.3354 17.5862 54.3354 16.5151C54.3354 15.4441 55.2037 14.5758 56.2748 14.5758C57.3459 14.5758 58.2142 15.4441 58.2142 16.5151ZM56.2748 49.4848C57.3459 49.4848 58.2142 48.6165 58.2142 47.5454C58.2142 46.4744 57.3459 45.6061 56.2748 45.6061C55.2037 45.6061 54.3354 46.4744 54.3354 47.5454C54.3354 48.6165 55.2037 49.4848 56.2748 49.4848ZM7.78992 24.2727C7.78992 25.3438 6.92162 26.2121 5.85053 26.2121C4.77943 26.2121 3.91113 25.3438 3.91113 24.2727C3.91113 23.2016 4.77943 22.3333 5.85053 22.3333C6.92162 22.3333 7.78992 23.2016 7.78992 24.2727ZM5.85053 41.7273C6.92162 41.7273 7.78992 40.859 7.78992 39.7879C7.78992 38.7168 6.92162 37.8485 5.85053 37.8485C4.77943 37.8485 3.91113 38.7168 3.91113 39.7879C3.91113 40.859 4.77943 41.7273 5.85053 41.7273ZM62.093 24.2727C62.093 25.3438 61.2247 26.2121 60.1536 26.2121C59.0825 26.2121 58.2142 25.3438 58.2142 24.2727C58.2142 23.2016 59.0825 22.3333 60.1536 22.3333C61.2247 22.3333 62.093 23.2016 62.093 24.2727ZM60.1536 41.7273C61.2247 41.7273 62.093 40.859 62.093 39.7879C62.093 38.7168 61.2247 37.8485 60.1536 37.8485C59.0825 37.8485 58.2142 38.7168 58.2142 39.7879C58.2142 40.859 59.0825 41.7273 60.1536 41.7273Z" fill="#9E9E9E"/>
<path fill-rule="evenodd" clip-rule="evenodd" d="M33.002 6.81818C34.0731 6.81818 34.9414 5.51574 34.9414 3.90909C34.9414 2.30244 34.0731 1 33.002 1C31.9309 1 31.0626 2.30244 31.0626 3.90909C31.0626 5.51574 31.9309 6.81818 33.002 6.81818ZM33.002 63.0606C34.0731 63.0606 34.9414 61.7582 34.9414 60.1515C34.9414 58.5449 34.0731 57.2424 33.002 57.2424C31.9309 57.2424 31.0626 58.5449 31.0626 60.1515C31.0626 61.7582 31.9309 63.0606 33.002 63.0606ZM5.8505 29.1212C7.45714 29.1212 8.75959 29.9895 8.75959 31.0606C8.75959 32.1317 7.45714 33 5.8505 33C4.24385 33 2.94141 32.1317 2.94141 31.0606C2.94141 29.9895 4.24385 29.1212 5.8505 29.1212ZM65.002 31.0606C65.002 29.9895 63.6996 29.1212 62.0929 29.1212C60.4863 29.1212 59.1838 29.9895 59.1838 31.0606C59.1838 32.1317 60.4863 33 62.0929 33C63.6996 33 65.002 32.1317 65.002 31.0606Z" fill="#787878"/>
</svg>
